<svg width="13" height="13" viewBox="0 0 13 13" fill="none" xmlns="http://www.w3.org/2000/svg">
<g clip-path="url(#clip0_3726_101826)">
<path fill-rule="evenodd" clip-rule="evenodd" d="M1.625 1.25C1.41789 1.25 1.25 1.41789 1.25 1.625V9.875H0.5V1.625C0.5 1.00367 1.00367 0.5 1.625 0.5H11.6723C12.1735 0.5 12.4244 1.10589 12.0701 1.46025L5.88189 7.64844H7.625V6.875H8.375V7.83594C8.375 8.1466 8.12316 8.39844 7.8125 8.39844H5.13189L3.84283 9.6875H9.6875V5H10.4375V9.6875C10.4375 10.1017 10.1017 10.4375 9.6875 10.4375H3.09283L1.78033 11.75H11.375C11.5821 11.75 11.75 11.5821 11.75 11.375V3.125H12.5V11.375C12.5 11.9963 11.9963 12.5 11.375 12.5H1.32766C0.826531 12.5 0.575562 11.8941 0.929926 11.5398L7.09466 5.375H5.375V6.125H4.625V5.1875C4.625 4.87684 4.87684 4.625 5.1875 4.625H7.84467L9.15717 3.3125H3.3125V8H2.5625V3.3125C2.5625 2.89829 2.89829 2.5625 3.3125 2.5625H9.90717L11.2197 1.25H1.625Z" fill="white" style="fill:white;fill-opacity:1;"/>
</g>
<defs>
<clipPath id="clip0_3726_101826">
<rect width="12" height="12" fill="white" style="fill:white;fill-opacity:1;" transform="translate(0.5 0.5)"/>
</clipPath>
</defs>
</svg>
