<svg width="18" height="18" viewBox="0 0 18 18" fill="none" xmlns="http://www.w3.org/2000/svg">
<rect x="2.75" y="2.75" width="12.5" height="12.5" rx="2.5" stroke="#494949" style="stroke:#494949;stroke:color(display-p3 0.2863 0.2863 0.2863);stroke-opacity:1;"/>
<path d="M12.5 12.5V5.5M5.5 12.5V5.5" stroke="white" style="stroke:white;stroke-opacity:1;" stroke-width="2" stroke-linecap="round" stroke-linejoin="round"/>
<path d="M7.5 12.5C7.5 12.2239 7.72386 12 8 12H10C10.2761 12 10.5 12.2239 10.5 12.5C10.5 12.7761 10.2761 13 10 13H8C7.72386 13 7.5 12.7761 7.5 12.5ZM7.5 5.5C7.5 5.22386 7.72386 5 8 5H10C10.2761 5 10.5 5.22386 10.5 5.5C10.5 5.77614 10.2761 6 10 6H8C7.72386 6 7.5 5.77614 7.5 5.5Z" fill="#494949" style="fill:#494949;fill:color(display-p3 0.2863 0.2863 0.2863);fill-opacity:1;"/>
</svg>
