<svg width="18" height="18" viewBox="0 0 18 18" fill="none" xmlns="http://www.w3.org/2000/svg">
<path d="M6.55152 13L11.4485 13C11.9916 13 12.2631 13 12.4705 12.8943C12.653 12.8014 12.8013 12.653 12.8943 12.4705C13 12.2631 13 11.9916 13 11.4485L13 6.55152C13 6.00844 13 5.73689 12.8943 5.52946C12.8013 5.347 12.653 5.19866 12.4705 5.10569C12.2631 5 11.9916 5 11.4485 5L6.55152 5C6.00844 5 5.73687 5 5.52945 5.10569C5.34701 5.19866 5.19864 5.347 5.1057 5.52946C5 5.73689 5 6.00844 5 6.55152L5 11.4485C5 11.9916 5 12.2631 5.1057 12.4705C5.19864 12.653 5.34701 12.8014 5.52945 12.8943C5.73687 13 6.00844 13 6.55152 13Z" stroke="#494949" style="stroke:#494949;stroke:color(display-p3 0.2863 0.2863 0.2863);stroke-opacity:1;" stroke-linecap="round" stroke-linejoin="round"/>
<path d="M2.25 5.5L2.25 12.5" stroke="white" style="stroke:white;stroke-opacity:1;" stroke-width="2" stroke-linecap="round"/>
<path d="M12.75 15.75L5.25 15.75" stroke="white" style="stroke:white;stroke-opacity:1;" stroke-width="2" stroke-linecap="round"/>
<path d="M12.5 2.25L5.5 2.25" stroke="#494949" style="stroke:#494949;stroke:color(display-p3 0.2863 0.2863 0.2863);stroke-opacity:1;" stroke-linecap="round"/>
<path d="M15.75 5.5L15.75 12.5" stroke="#494949" style="stroke:#494949;stroke:color(display-p3 0.2863 0.2863 0.2863);stroke-opacity:1;" stroke-linecap="round"/>
</svg>
