<svg width="18" height="18" viewBox="0 0 18 18" fill="none" xmlns="http://www.w3.org/2000/svg">
<path d="M2.5 5.5L2.5 12.5" stroke="#494949" style="stroke:#494949;stroke:color(display-p3 0.2863 0.2863 0.2863);stroke-opacity:1;" stroke-linecap="round"/>
<path d="M13 11.4485V6.55152C13 6.00844 13 5.73689 12.8943 5.52946C12.8014 5.347 12.653 5.19866 12.4705 5.10569C12.2631 5 11.9916 5 11.4485 5H6.55152C6.00844 5 5.73689 5 5.52946 5.10569C5.347 5.19866 5.19866 5.347 5.10569 5.52946C5 5.73689 5 6.00844 5 6.55152V11.4485C5 11.9916 5 12.2631 5.10569 12.4705C5.19866 12.653 5.347 12.8014 5.52946 12.8943C5.73689 13 6.00844 13 6.55152 13H11.4485C11.9916 13 12.2631 13 12.4705 12.8943C12.653 12.8014 12.8014 12.653 12.8943 12.4705C13 12.2631 13 11.9916 13 11.4485Z" stroke="#494949" style="stroke:#494949;stroke:color(display-p3 0.2863 0.2863 0.2863);stroke-opacity:1;" stroke-linecap="round" stroke-linejoin="round"/>
<path d="M15.5 5.5V12.5" stroke="#494949" style="stroke:#494949;stroke:color(display-p3 0.2863 0.2863 0.2863);stroke-opacity:1;" stroke-linecap="round"/>
<path d="M5.25 2.25H12.75" stroke="white" style="stroke:white;stroke-opacity:1;" stroke-width="2" stroke-linecap="round"/>
<path d="M5.5 15.25H12.5" stroke="#494949" style="stroke:#494949;stroke:color(display-p3 0.2863 0.2863 0.2863);stroke-opacity:1;" stroke-linecap="round"/>
</svg>
