<svg width="22" height="22" viewBox="0 0 22 22" fill="none" xmlns="http://www.w3.org/2000/svg">
<g clip-path="url(#clip0_2707_69355)">
<mask id="mask0_2707_69355" style="mask-type:alpha" maskUnits="userSpaceOnUse" x="0" y="0" width="23" height="22">
<circle cx="11.0078" cy="11" r="11" fill="black" style="fill:black;fill-opacity:1;"/>
</mask>
<g mask="url(#mask0_2707_69355)">
<path fill-rule="evenodd" clip-rule="evenodd" d="M16.737 20.3969C19.9024 18.4654 22.0156 14.9795 22.0156 11C22.0156 4.92487 17.0908 0 11.0156 0C4.94049 0 0.015625 4.92487 0.015625 11C0.015625 13.6014 0.918657 15.9919 2.42835 17.8751L6.43945 14.6732V10.2135V8.20775L3.9857 5.75391H6.43945H15.6693C16.5441 5.75391 17.2533 6.46309 17.2533 7.33791V10.1708C16.4269 9.5987 15.8319 9.13852 15.8319 9.13852L13.0395 10.8308L17.8203 14.8924L16.737 20.3969ZM11.3203 6.98584H14.6616C14.6616 6.98584 14.7871 8.37687 12.9594 8.37687C11.3203 6.98574 11.3203 6.98584 11.3203 6.98584Z" fill="#F7F7F7" style="fill:#F7F7F7;fill:color(display-p3 0.9698 0.9698 0.9698);fill-opacity:1;"/>
</g>
<path fill-rule="evenodd" clip-rule="evenodd" d="M2.42188 17.8751L6.43297 14.6732V10.2135V8.20775L3.97922 5.75391H6.43297H15.6628C16.5376 5.75391 17.2468 6.46309 17.2468 7.33791V10.1708C16.4204 9.5987 15.8254 9.13852 15.8254 9.13852L13.0331 10.8308L17.8138 14.8924L16.7305 20.3969C15.0635 21.414 13.1048 22 11.0091 22C7.53543 22 4.43779 20.3898 2.42188 17.8751ZM11.3138 6.98584H14.6552C14.6552 6.98584 14.7806 8.37687 12.9529 8.37687C11.3138 6.98574 11.3138 6.98584 11.3138 6.98584Z" fill="#202123" style="fill:#202123;fill:color(display-p3 0.1255 0.1294 0.1373);fill-opacity:1;"/>
<mask id="path-4-inside-1_2707_69355" fill="white">
<path d="M22.0078 11C22.0078 17.0751 17.0829 22 11.0078 22C4.93268 22 0.0078125 17.0751 0.0078125 11C0.0078125 4.92487 4.93268 0 11.0078 0C17.0829 0 22.0078 4.92487 22.0078 11Z"/>
</mask>
<path d="M21.1484 11C21.1484 16.6005 16.6083 21.1406 11.0078 21.1406V22.8594C17.5576 22.8594 22.8672 17.5498 22.8672 11H21.1484ZM11.0078 21.1406C5.4073 21.1406 0.867188 16.6005 0.867188 11H-0.851562C-0.851562 17.5498 4.45806 22.8594 11.0078 22.8594V21.1406ZM0.867188 11C0.867188 5.39949 5.4073 0.859375 11.0078 0.859375V-0.859375C4.45806 -0.859375 -0.851562 4.45025 -0.851562 11H0.867188ZM11.0078 0.859375C16.6083 0.859375 21.1484 5.39949 21.1484 11H22.8672C22.8672 4.45025 17.5576 -0.859375 11.0078 -0.859375V0.859375Z" fill="#F7F7F7" style="fill:#F7F7F7;fill:color(display-p3 0.9698 0.9698 0.9698);fill-opacity:1;" mask="url(#path-4-inside-1_2707_69355)"/>
</g>
<defs>
<clipPath id="clip0_2707_69355">
<rect width="22" height="22" fill="white" style="fill:white;fill-opacity:1;"/>
</clipPath>
</defs>
</svg>
