<svg width="15" height="15" viewBox="0 0 15 15" fill="none" xmlns="http://www.w3.org/2000/svg">
<path fill-rule="evenodd" clip-rule="evenodd" d="M8.30469 2.50078C8.30469 2.25225 8.50616 2.05078 8.75469 2.05078H12.2547C12.5032 2.05078 12.7047 2.25225 12.7047 2.50078C12.7047 2.74931 12.5032 2.95078 12.2547 2.95078H11.0503V4.00039C11.0336 4.00013 11.0168 4 11 4C10.6368 4 10.2848 4.06052 9.95034 4.17393V2.95078H8.75469C8.50616 2.95078 8.30469 2.74931 8.30469 2.50078ZM7.31541 7.05062H5.05034V2.95078H6.25469C6.50322 2.95078 6.70469 2.74931 6.70469 2.50078C6.70469 2.25225 6.50322 2.05078 6.25469 2.05078H2.75469C2.50616 2.05078 2.30469 2.25225 2.30469 2.50078C2.30469 2.74931 2.50616 2.95078 2.75469 2.95078H3.95034V12.0508H2.75469C2.50616 12.0508 2.30469 12.2523 2.30469 12.5008C2.30469 12.7493 2.50616 12.9508 2.75469 12.9508H6.25469C6.50322 12.9508 6.70469 12.7493 6.70469 12.5008C6.70469 12.2523 6.50322 12.0508 6.25469 12.0508H5.05034V7.95062H7.08824C7.14151 7.63886 7.21802 7.33787 7.31541 7.05062Z" fill="white" fill-opacity="0.5" style="fill:white;fill-opacity:0.5;"/>
<path d="M11.75 12.4513V5.30132M8.75 11.0005H12.75M8.79927 10.902L11.7509 5.25" stroke="#CECECE" style="stroke:#CECECE;stroke:color(display-p3 0.8072 0.8072 0.8072);stroke-opacity:1;" stroke-linecap="round"/>
</svg>
